<svg width="421" height="421" viewBox="0 0 421 421" fill="none" xmlns="http://www.w3.org/2000/svg">
    <rect width="421" height="421" rx="41" fill="#1E1E1E"/>
    <path d="M23.9353 141V136.801L30.9956 130.374C33.2161 128.341 34.991 126.621 36.3202 125.214C37.6494 123.791 38.6033 122.516 39.1819 121.391C39.7604 120.249 40.0497 119.107 40.0497 117.966C40.0497 116.277 39.479 114.971 38.3374 114.049C37.2115 113.11 35.6165 112.641 33.5523 112.641C32.1137 112.641 30.7298 112.899 29.4006 113.415C28.087 113.931 26.9377 114.698 25.9525 115.714L23.7945 111.281C25.1863 110.045 26.7813 109.099 28.5796 108.443C30.3779 107.786 32.2466 107.457 34.1857 107.457C36.5157 107.457 38.5407 107.864 40.2608 108.677C41.9966 109.49 43.3414 110.64 44.2953 112.125C45.2492 113.595 45.7262 115.323 45.7262 117.309C45.7262 118.654 45.4603 119.991 44.9287 121.32C44.397 122.649 43.4431 124.143 42.067 125.8C40.7065 127.458 38.7753 129.459 36.2733 131.805L31.84 135.91H46.5706V141H23.9353ZM52.2833 141.704C51.1887 141.704 50.2426 141.36 49.4451 140.672C48.6476 139.968 48.2488 139.037 48.2488 137.88C48.2488 137.098 48.4287 136.418 48.7883 135.84C49.1636 135.261 49.6562 134.815 50.2661 134.503C50.8759 134.19 51.5483 134.033 52.2833 134.033C53.3936 134.033 54.3396 134.385 55.1215 135.089C55.919 135.777 56.3178 136.707 56.3178 137.88C56.3178 138.647 56.1301 139.319 55.7548 139.898C55.3952 140.476 54.9104 140.922 54.3006 141.235C53.6907 141.547 53.0183 141.704 52.2833 141.704ZM70.9839 141.704C68.8415 141.704 66.9259 141.258 65.2371 140.367C63.5482 139.475 62.1174 138.24 60.9446 136.661C59.7874 135.081 58.896 133.259 58.2705 131.195C57.6607 129.131 57.3557 126.926 57.3557 124.581C57.3557 122.219 57.6607 120.007 58.2705 117.942C58.896 115.878 59.7874 114.064 60.9446 112.501C62.1174 110.921 63.5482 109.686 65.2371 108.794C66.9259 107.903 68.8415 107.457 70.9839 107.457C73.1262 107.457 75.034 107.903 76.7072 108.794C78.3961 109.686 79.8269 110.921 80.9997 112.501C82.1725 114.064 83.0639 115.878 83.6737 117.942C84.2992 120.007 84.612 122.219 84.612 124.581C84.612 126.926 84.2992 129.131 83.6737 131.195C83.0639 133.259 82.1725 135.081 80.9997 136.661C79.8269 138.24 78.3961 139.475 76.7072 140.367C75.034 141.258 73.1262 141.704 70.9839 141.704ZM70.9839 136.379C72.1567 136.379 73.2122 136.113 74.1505 135.582C75.1044 135.05 75.9175 134.276 76.5899 133.259C77.278 132.243 77.8018 131.008 78.1615 129.553C78.5368 128.099 78.7244 126.441 78.7244 124.581C78.7244 122.094 78.4039 119.975 77.7627 118.224C77.1216 116.457 76.2146 115.112 75.0418 114.189C73.8846 113.251 72.532 112.782 70.9839 112.782C69.8267 112.782 68.7711 113.048 67.8173 113.58C66.879 114.111 66.0659 114.885 65.3778 115.902C64.6898 116.903 64.1581 118.138 63.7828 119.608C63.4231 121.062 63.2433 122.72 63.2433 124.581C63.2433 127.051 63.5638 129.17 64.205 130.937C64.8618 132.689 65.7687 134.033 66.9259 134.972C68.0831 135.91 69.4357 136.379 70.9839 136.379Z" fill="#717171"/>
    <path d="M24.304 271V149.632H51.9585L98.0782 226.181L86.635 226.267L130.501 149.632H158.069V271H130.154L130.674 186.389L135.789 188.21L100.766 248.114H81.6069L45.1966 188.21L50.138 186.389L50.6582 271H24.304ZM229.073 273.601C219.883 273.601 210.954 272.243 202.285 269.526C193.616 266.81 186.276 262.88 180.266 257.736L193.789 236.237C196.332 238.953 199.569 241.294 203.499 243.259C207.429 245.224 211.619 246.755 216.069 247.853C220.577 248.894 224.94 249.414 229.159 249.414C235.112 249.414 239.938 248.431 243.637 246.466C247.393 244.444 249.272 241.525 249.272 237.711C249.272 234.59 247.914 231.96 245.197 229.822C242.539 227.683 237.539 225.632 230.2 223.667L219.797 220.719C207.313 217.251 198.326 212.512 192.836 206.502C187.345 200.491 184.6 193.267 184.6 184.829C184.6 179.396 185.756 174.397 188.068 169.831C190.379 165.208 193.616 161.22 197.777 157.868C201.938 154.458 206.822 151.829 212.428 149.979C218.092 148.072 224.247 147.118 230.893 147.118C240.082 147.118 248.607 148.476 256.467 151.193C264.385 153.851 270.742 157.492 275.539 162.116L261.495 182.922C259.299 180.61 256.583 178.587 253.346 176.853C250.11 175.12 246.584 173.761 242.77 172.779C238.955 171.796 235.112 171.305 231.24 171.305C227.426 171.305 224.102 171.796 221.27 172.779C218.439 173.761 216.213 175.177 214.595 177.027C213.035 178.818 212.255 180.957 212.255 183.442C212.255 185.465 212.832 187.17 213.988 188.557C215.202 189.886 217.196 191.157 219.97 192.371C222.802 193.585 226.616 194.914 231.413 196.359L241.99 199.48C254.415 203.121 263.402 207.687 268.951 213.177C274.499 218.667 277.273 225.805 277.273 234.59C277.273 242.276 275.308 249.067 271.378 254.962C267.448 260.799 261.871 265.365 254.647 268.659C247.48 271.954 238.955 273.601 229.073 273.601ZM297.415 271V149.632H326.197V201.387L367.375 149.632H403.265L358.359 205.375L409.073 271H372.056L339.374 227.134L326.197 242.132V271H297.415Z" fill="white" fill-opacity="0.84"/>
</svg>
